<svg width="14" height="14" viewBox="0 0 14 14" fill="none" xmlns="http://www.w3.org/2000/svg">
<path fill-rule="evenodd" clip-rule="evenodd" d="M0 7C0 3.13425 3.14125 0 7 0C10.8658 0 14 3.14125 14 7C14 10.8658 10.8587 14 7 14C3.13425 14 0 10.8587 0 7ZM1.75 7C1.75 9.89363 4.10025 12.25 7 12.25C9.89363 12.25 12.25 9.89975 12.25 7C12.25 4.10638 9.89975 1.75 7 1.75C4.10638 1.75 1.75 4.10025 1.75 7ZM3.5 7C3.5 5.06625 5.07063 3.5 7 3.5C8.93375 3.5 10.5 5.07063 10.5 7C10.5 8.93375 8.92937 10.5 7 10.5C5.06625 10.5 3.5 8.92937 3.5 7ZM5.25 7C5.25 7.973 6.03312 8.75 7 8.75C7.973 8.75 8.75 7.96688 8.75 7C8.75 6.027 7.96688 5.25 7 5.25C6.027 5.25 5.25 6.03312 5.25 7Z" fill="black"/>
</svg>
