<svg width="18" height="14" viewBox="0 0 18 14" fill="none" xmlns="http://www.w3.org/2000/svg">
<path d="M5.54135 10.9967L5.54174 10.9964L8.94888 9.11384C7.84358 7.74323 7.83395 5.96074 7.83395 5.87313V5.87293L7.83617 3.62575L5.54135 10.9967ZM5.54135 10.9967C5.35891 11.098 5.24526 11.291 5.24526 11.5008V12.2504C5.24526 12.7722 5.66492 13.2 6.18552 13.2H16.5458C17.0666 13.2 17.4857 12.772 17.4857 12.2504V11.5C17.4857 11.2906 17.3728 11.0974 17.19 10.9959L17.1896 10.9957L13.7824 9.11307C14.8874 7.74246 14.897 5.96 14.897 5.87275V5.87265L14.8959 3.625C14.8959 3.62497 14.8959 3.62493 14.8959 3.6249C14.8959 3.59254 14.893 3.56086 14.8882 3.53086L14.888 3.52981C14.7494 2.69952 14.2299 2.0171 13.5742 1.54583C12.9191 1.07507 12.1119 0.802625 11.367 0.802625H11.3655C10.6202 0.802625 9.81264 1.07526 9.15751 1.54627C8.50166 2.01779 7.98229 2.70052 7.84406 3.53104L7.844 3.53141M5.54135 10.9967L7.844 3.53141M7.844 3.53141C7.83907 3.56138 7.83618 3.59283 7.83617 3.62555L7.844 3.53141ZM12.572 9.75503L12.5719 9.755C12.4048 9.66256 12.2953 9.49287 12.2778 9.30323L12.2778 9.30264C12.2608 9.11266 12.3386 8.92632 12.4852 8.80545L12.4855 8.8052C13.1062 8.29537 13.4267 7.57363 13.5909 6.96199C13.7537 6.35549 13.7571 5.87797 13.7571 5.87316C13.7571 5.87316 13.7571 5.87315 13.7571 5.87315V5.87313L13.7557 3.67736C13.6594 3.18906 13.3222 2.76007 12.8687 2.44802C12.4099 2.13236 11.8533 1.95189 11.3656 1.95188L12.572 9.75503ZM12.572 9.75503L16.3454 11.841L16.3452 12.0504H6.38552V11.8415L10.1594 9.7558L10.1595 9.75575M12.572 9.75503L10.1595 9.75575M10.1595 9.75575C10.3264 9.66337 10.4361 9.49366 10.4532 9.30366M10.1595 9.75575L10.4532 9.30366M5.67289 8.9575L5.79984 8.80296C5.94702 8.92387 6.02489 9.11035 6.00794 9.30039L6.00788 9.30098C5.99041 9.49061 5.88091 9.66031 5.71382 9.75275L5.71374 9.7528L1.93989 11.8385V12.0474H4.33043C4.64791 12.0474 4.90019 12.3077 4.90019 12.6224C4.90019 12.9371 4.64791 13.1974 4.33043 13.1974H1.73989C1.21903 13.1974 0.8 12.7689 0.8 12.2474V11.4977C0.8 11.289 0.912817 11.0951 1.09614 10.9938L4.5033 9.11084C3.39831 7.74025 3.38832 5.9578 3.38832 5.8705V5.8703L3.39054 3.62275L3.39054 3.62255L3.59054 3.62275L5.67289 8.9575ZM5.67289 8.9575L5.79984 8.80296C5.18273 8.29603 4.86226 7.5743 4.69723 6.96154C4.53434 6.3567 4.52868 5.87924 4.52858 5.87098L4.52858 5.87088L4.53078 3.67507C4.6267 3.18677 4.9636 2.75769 5.41705 2.4455C5.87573 2.12972 6.43229 1.94906 6.92023 1.94888L5.67289 8.9575ZM8.97641 3.67807C9.07233 3.18975 9.40916 2.76067 9.86251 2.44849C10.3211 2.13272 10.8776 1.95206 11.3655 1.95188L8.97641 3.67807ZM8.97641 3.67807L8.97421 5.87387L8.97421 5.874C8.97432 5.88302 8.98023 6.36011 9.143 6.96439C9.30807 7.57722 9.62855 8.29903 10.2455 8.80596L8.97641 3.67807ZM10.4532 9.30366C10.4532 9.30377 10.4532 9.30387 10.4531 9.30398L10.254 9.28562L10.4532 9.30339C10.4532 9.30348 10.4532 9.30357 10.4532 9.30366ZM6.9203 1.94888C7.20832 1.94889 7.52246 2.01066 7.82833 2.13101L6.9203 1.94888Z" fill="#1C1C1C" stroke="#1C1C1C" stroke-width="0.4"/>
</svg>
