<svg width="18" height="12" viewBox="0 0 18 12" fill="none" xmlns="http://www.w3.org/2000/svg">
<path fill-rule="evenodd" clip-rule="evenodd" d="M16.2 6.9059L14.1966 5.79836L16.2 4.69023V6.9059ZM9.9 9.55385H2.7C2.2032 9.55385 1.8 9.19797 1.8 8.75769V2.38846C1.8 1.94898 2.2032 1.59231 2.7 1.59231H9.9C10.3968 1.59231 10.8 1.94898 10.8 2.38846V8.75769C10.8 9.19797 10.3968 9.55385 9.9 9.55385ZM12.6 4.86536V1.59231C12.6 0.713354 11.7945 0 10.8 0H1.8C0.8055 0 0 0.713354 0 1.59231V9.55385C0 10.4336 0.8055 11.1462 1.8 11.1462H10.8C11.7945 11.1462 12.6 10.4336 12.6 9.55385V6.73077L16.6158 8.99736C17.2152 9.33572 18 8.95514 18 8.32618V3.26975C18 2.64079 17.2152 2.26021 16.6158 2.59858L12.6 4.86536Z" fill="black"/>
</svg>
